<svg width="7" height="23" viewBox="0 0 7 23" fill="none" xmlns="http://www.w3.org/2000/svg">
<path d="M0.664 0.15554H6.616L5.624 14.7795H1.656L0.664 0.15554ZM3.64 22.8115C2.76533 22.8115 2.02933 22.5342 1.432 21.9795C0.856 21.4035 0.568 20.7102 0.568 19.8995C0.568 19.0889 0.856 18.4169 1.432 17.8835C2.008 17.3289 2.744 17.0515 3.64 17.0515C4.536 17.0515 5.272 17.3289 5.848 17.8835C6.424 18.4169 6.712 19.0889 6.712 19.8995C6.712 20.7102 6.41333 21.4035 5.816 21.9795C5.24 22.5342 4.51467 22.8115 3.64 22.8115Z" fill="white"/>
</svg>
